<?xml version="1.0" encoding="UTF-8"?>
<svg id="Layer_2" data-name="Layer 2" xmlns="http://www.w3.org/2000/svg" viewBox="0 0 139.64 50.53">
  <defs>
    <style>
      .cls-1, .cls-2 {
        fill: #FDCA00;
      }

      .cls-1, .cls-3 {
        fill-rule: evenodd;
      }

      .cls-3 {
        fill: #ed1c24;
      }
    </style>
  </defs>
  <g id="Layer_1-2" data-name="Layer 1">
    <g>
      <g>
        <path class="cls-3" d="M59.6,0c1.65,6.55-3.98,5.24-6.09,7.96-.35-6.89,3.83-3.88,6.09-7.96"/>
        <path class="cls-3" d="M62.26,25.97l2.88-2.65,2.88,2.65-2.88,2.64-2.88-2.64ZM62.26,17.33l2.88-2.64,2.88,2.64-2.88,2.65-2.88-2.65Z"/>
        <path class="cls-1" d="M80.8,22.28c-2.12-.69-2.72-3.25-1.83-4.73.64-1.06,1.76-1.6,2.88-1.06.85.4,1.22,1.46.9,1.57-.25.12-.39-.17-.4-.21-.37-1.25-2.05-.78-2.47.1-.42.9-.25,2.23,1.18,2.63,1.71.47,2.71-.17,3.26-1.28.77-1.56.68-4.26-.67-5.81-1.13-1.31-2.69-1.59-4.26-2.01-.96-.03-1.55,0-1.74.09l-.25.32v16.66c.07,2.14.22,3.3.45,3.48l.51.42c.73.11,1.54.19,2.43.22.13.06.2.15.2.28-.03.15-.13.24-.3.28-3.75-.06-7.01-.06-9.81,0l-.24-.19c-.03-.18,0-.29.09-.32l1.59-.17c.4-.03.69-.43.86-1.2.2-1.89.27-3.13.2-3.7v-14.83c-.03-.85-.2-1.41-.51-1.65-.49-.31-.86-.44-1.09-.42l-1.39-.04c-.2-.06-.28-.17-.25-.32.13-.21.28-.31.45-.28l6.12.09,4.08-.09c1.36.06,3.02.24,3.88.54,2.02.87,3.54,2.36,3.69,4.63.24,2.11-.44,4.28-1.8,5.68-1.42,1.46-3.46,2.08-5.74,1.33M104.27,18.3c-1.98,1.02-4.28-.2-4.82-1.83-.39-1.18.15-2.61,1.29-3.11.86-.38,1.91.04,1.78.35-.07.27-.38.18-.42.17-1.19-.54-1.91,1.01-1.51,1.91.41.91,1.5,1.66,2.74.85.76-.5,1.17-1.17,1.12-1.89-.15-2.52-2.53-3.2-4.43-2.43-2.43,1.35-3.73,3.92-3.91,7.7-.03.74.02,1.71.15,2.93.26,1.54.71,2.91,1.35,4.09.87,1.55,2,2.73,3.39,3.56,1.03.53,2.27.92,3.72,1.15,1.48.09,2.72-.08,3.73-.5,2.61-1.12,4.09-3.67,4.44-7.65.2-3.68-.52-6.6-2.17-8.77-.84-1.05-1.85-1.86-3.01-2.43-.48-1.27-1.61-2.11-2.88-2.43,1.75.01,3.38.24,4.87.69,4.74,1.57,7.29,4.8,7.64,9.7.13,3.91-1.09,7.11-3.68,9.61-1.35,1.19-2.77,2.03-4.25,2.53-1.3.45-2.74.71-4.32.81-2.06.06-3.91-.18-5.56-.72-4.64-1.69-7.24-5.1-7.79-10.23-.12-3.56,1.04-6.57,3.49-9.03,1.17-1.18,2.69-2.03,4.23-2.47,2.64-.76,5.33-.33,6.39,1.65,1.08,2,.46,4.75-1.59,5.8Z"/>
        <path class="cls-1" d="M80.8,22.28c-2.12-.69-2.72-3.25-1.83-4.73.64-1.06,1.76-1.6,2.88-1.06.85.4,1.22,1.46.9,1.57-.25.12-.39-.17-.4-.21-.37-1.25-2.05-.78-2.47.1-.42.9-.25,2.23,1.18,2.63,1.71.47,2.71-.17,3.26-1.28.77-1.56.68-4.26-.67-5.81-1.13-1.31-2.69-1.59-4.26-2.01-.96-.03-1.55,0-1.74.09l-.25.32v16.66c.07,2.14.22,3.3.45,3.48l.51.42c.73.11,1.54.19,2.43.22.13.06.2.15.2.28-.03.15-.13.24-.3.28-3.75-.06-7.01-.06-9.81,0l-.24-.19c-.03-.18,0-.29.09-.32l1.59-.17c.4-.03.69-.43.86-1.2.2-1.89.27-3.13.2-3.7v-14.83c-.03-.85-.2-1.41-.51-1.65-.49-.31-.86-.44-1.09-.42l-1.39-.04c-.2-.06-.28-.17-.25-.32.13-.21.28-.31.45-.28l6.12.09,4.08-.09c1.36.06,3.02.24,3.88.54,2.02.87,3.54,2.36,3.69,4.63.24,2.11-.44,4.28-1.8,5.68-1.42,1.46-3.46,2.08-5.74,1.33"/>
        <path class="cls-1" d="M50.16,10.06l3.05.09h2.94l2.73-.09.4.14c.03.2,0,.34-.1.4-.83.03-1.46.14-1.9.32-.49.25-.73,1.04-.7,2.39v16.25c.03,1.52.2,2.37.51,2.56l.4.28,2.53.27c.13.09.15.23.05.41l-.54.14-5.38-.09-4.13.05-.25-.18v-.23l.2-.14c.8,0,1.34-.06,1.64-.17.36-.15.59-.49.69-1.02.2-1.89.27-3.13.2-3.7l-.05-15.62c-.1-.48-.27-.85-.5-1.09l-.44-.23-1.59-.14c-.2-.09-.27-.24-.2-.45l.44-.14Z"/>
        <path class="cls-1" d="M23.72,15.07c0,2.48,2.62,4.37,4.88,4.02,1.06-.17,2.23-.85,2.66-2.15.39-1.18-.15-2.61-1.29-3.11-.86-.38-1.91.04-1.78.35.08.27.38.18.42.17,1.19-.54,1.91,1.01,1.51,1.91-1.04,2.33-4.48.7-4.39-1.04.1-1.84,1.98-3.22,3.4-3.25h0s4.61.02,4.61.02v16.83c-.03,2.09-.25,3.26-.64,3.51-.2.24-.85.37-1.93.37-.14.06-.18.18-.15.35.1.15.32.23.64.23.83-.09,3.96-.11,9.42-.05.24-.06.33-.2.3-.41-.06-.12-.24-.17-.54-.17l-1.39-.05-.74-.19c-.3-.12-.52-.41-.65-.87-.1-.51-.18-1.7-.24-3.56v-16c2.02,0,3.75.04,5.21.13,1.46.22,1.75.67,1.98,1.37l.1.96.1.18.3.09c.1-.03.18-.12.25-.28l.1-4.29c0-.11-.13-.16-.4-.13l-1.83.26h-14.34c-2.79,0-5.58,2.06-5.59,4.79"/>
      </g>
      <g>
        <path class="cls-2" d="M115.55,49.11c-.14.06-.37.13-.71.22-.34.09-.72.15-1.16.2-.43.05-.83.08-1.2.08-.17,0-.31-.02-.4-.02-.74-.05-1.42-.25-2.07-.58-.63-.33-1.16-.8-1.53-1.41-.4-.61-.6-1.34-.59-2.17.05-.71.19-1.33.43-1.87.28-.54.62-.99,1.05-1.35.43-.35.93-.62,1.47-.81.57-.18,1.16-.27,1.77-.27.43,0,.89.04,1.34.08.46.05.82.14,1.11.26,0,.48-.02.95-.02,1.42-.11-.04-.22-.1-.32-.15-.88-.45-1.7-.68-2.41-.68-.14,0-.23,0-.28,0-.54.04-1.02.19-1.45.5-.43.28-.77.66-1.02,1.14-.25.49-.37,1-.37,1.58,0,.04.02.07.02.11v.12c.02.41.11.79.28,1.15.15.36.39.66.66.94.28.27.57.49.94.66.35.17.77.27,1.22.33.06,0,.19,0,.35,0,.45,0,.82-.06,1.11-.15.11-.04.23-.07.35-.11.02-.27.05-.49.05-.65,0-.55-.06-1.08-.23-1.6-.06-.2-.17-.44-.31-.73.66,0,1.33,0,2.01,0-.15.6-.23,1.08-.23,1.45-.02.3-.02.58-.02.88-.02.41.02.77.08,1.09.02.11.03.21.06.32M104.49,49.52c-1.39-1.83-2.78-3.67-4.15-5.5-.02,1.5-.02,2.98-.03,4.47,0,.06.02.17.03.31.03.13.06.27.09.41.02.02.03.06.06.13.03.07.05.12.05.14-.62,0-1.22,0-1.82,0,.02-.03.05-.08.08-.14.03-.06.05-.12.06-.16.05-.12.08-.25.08-.38.02-.14.03-.25.03-.31.02-2.11.03-4.21.05-6.31-.05-.05-.12-.14-.23-.26-.11-.11-.18-.19-.25-.25-.09-.1-.22-.19-.35-.28-.14-.09-.26-.16-.31-.2h1.93c1.53,2.03,3.05,4.04,4.6,6.06.02-1.66.03-3.35.03-5.03-.02-.06-.03-.15-.05-.26-.02-.12-.03-.22-.06-.33-.02-.07-.05-.16-.08-.24-.03-.08-.05-.14-.05-.18.6,0,1.2,0,1.82.02,0,0-.03.04-.05.06-.02.04-.03.07-.06.12-.02.04-.03.09-.05.12-.05.11-.06.23-.08.36-.02.14-.03.25-.03.32-.02,2.12-.02,4.21-.03,6.31.02.06.02.15.03.27.02.12.05.23.06.35.02.04.03.09.05.14.02.05.03.11.06.15.02.04.03.07.03.09-.49,0-.99,0-1.47,0ZM88.69,45.22c.05.5.17.96.35,1.36.2.42.45.76.76,1.05.31.31.66.54,1.05.69.39.15.79.23,1.19.23h.29c.42-.04.79-.21,1.13-.51.34-.3.62-.68.8-1.13.2-.46.31-.93.31-1.4,0-.13-.02-.24-.02-.3-.06-.66-.28-1.22-.63-1.73-.32-.49-.76-.87-1.27-1.13-.51-.27-1-.4-1.51-.4-.48.02-.89.18-1.27.47-.39.28-.66.66-.88,1.12-.2.45-.29.92-.31,1.41v.27ZM95.79,45.19c0,.66-.11,1.25-.34,1.79-.23.52-.52.98-.91,1.35-.39.37-.83.66-1.33.88-.49.2-1.02.29-1.54.29-.05,0-.09,0-.12,0h-.14c-.8-.04-1.5-.26-2.07-.64-.6-.38-1.05-.87-1.37-1.5-.32-.61-.49-1.31-.51-2.07,0-.58.11-1.11.32-1.63.2-.51.49-.96.86-1.35.39-.38.82-.68,1.31-.89.49-.21,1.03-.34,1.59-.35.6,0,1.14.12,1.65.31.51.2.96.48,1.34.85.39.38.68.81.89,1.31.22.5.34,1.04.35,1.65ZM82.87,41.12c.34,0,.66.06.99.18.31.11.6.27.85.47.25.2.45.45.59.74.14.28.22.58.22.91,0,.64-.19,1.18-.56,1.64-.37.45-.88.69-1.51.72-.28,0-.56,0-.83,0v2.64c.02.07.03.18.05.32.02.14.03.27.08.4,0,.02.02.06.05.12.02.06.03.1.05.12,0,.02.02.04.02.04h-1.8s.03-.08.06-.14c.03-.06.05-.12.06-.17.03-.12.08-.25.09-.38.02-.13.02-.24.03-.31,0-2.1,0-4.2.02-6.31-.02-.08-.02-.19-.03-.33-.02-.13-.05-.27-.09-.4-.02-.03-.05-.07-.06-.13-.03-.05-.06-.1-.06-.12.6,0,1.2,0,1.82,0ZM82.97,45.31c.26-.09.49-.21.68-.39.19-.18.31-.39.42-.63.09-.24.14-.5.14-.8,0-.26-.08-.5-.2-.74-.14-.25-.31-.45-.51-.61-.2-.18-.42-.28-.63-.33-.09-.02-.17-.04-.25-.05v3.66c.11-.04.23-.07.35-.11ZM73.52,38.93c.15-.05.28.05.37.29,1.14,2.84,2.28,5.68,3.41,8.52.22.47.39.76.51.9.2.22.37.35.51.41.26.06.51.09.77.09.02.02.03.04.06.05,0,.12-.05.19-.17.19-.15,0-.31.02-.45.03-1.94,0-2.93-.04-2.95-.11v-.12c.08-.05.15-.08.23-.08.06-.04.09-.11.11-.2-.39-.99-.76-1.98-1.11-2.98-.03,0-.06-.02-.08-.04-1.02,0-2.04,0-3.04,0-.05.05-.08.11-.11.16-.29.71-.54,1.4-.8,2.1-.03.15-.06.3-.09.43-.02.27.02.43.12.49.06.03.12.04.19.06.35,0,.56.02.6.04.05.11.02.18-.06.22-.89-.03-2.01-.04-3.33,0-.03-.03-.06-.05-.09-.08,0-.04.02-.09.03-.14.05,0,.09-.03.14-.04.32.04.65-.04.93-.23.23-.16.46-.54.69-1.15,1.13-2.82,2.25-5.66,3.38-8.49.06-.15.14-.26.23-.31ZM71.93,45.13s.02.04.03.06c.85,0,1.71,0,2.58,0-.43-1.17-.86-2.34-1.28-3.51-.03.03-.06.04-.08.07-.42,1.13-.83,2.26-1.25,3.37ZM57.93,45.22c.03.5.15.96.35,1.36.19.41.43.75.76,1.04.31.3.66.53,1.05.67.39.16.79.24,1.2.23.12,0,.22,0,.28,0,.42-.04.8-.22,1.14-.51.34-.3.6-.68.79-1.14.2-.45.29-.92.29-1.39,0-.13,0-.24-.02-.3-.08-.66-.28-1.22-.62-1.73-.37-.49-.8-.87-1.3-1.13-.51-.27-1.02-.38-1.51-.38-.48.02-.89.18-1.26.47-.37.29-.66.67-.86,1.13-.2.45-.31.92-.31,1.41,0,.12,0,.21.02.27ZM64.99,45.14c.02.66-.09,1.25-.31,1.78-.22.53-.54.99-.91,1.36-.37.38-.83.67-1.33.89-.49.2-1.02.29-1.54.3-.05,0-.08,0-.11,0h-.15c-.79-.04-1.47-.25-2.08-.62-.57-.37-1.03-.86-1.37-1.49-.32-.61-.49-1.31-.51-2.07,0-.58.09-1.11.31-1.63.22-.51.49-.96.86-1.35.39-.38.82-.69,1.33-.91.48-.21,1-.34,1.57-.34.59,0,1.14.1,1.65.29.51.2.96.48,1.33.85.39.37.69.8.91,1.3.22.5.34,1.04.35,1.65ZM49.72,45.81c-.08.04-.14.08-.2.11,0,.85,0,1.71.02,2.55.02.07.02.18.03.3.02.12.03.26.09.38.02.05.03.12.06.17.03.06.05.11.06.13-.62,0-1.23,0-1.84.02.02-.03.05-.07.08-.13.02-.06.05-.12.05-.14.03-.13.08-.27.09-.41.02-.14.03-.25.03-.32-.02-2.1-.02-4.21-.03-6.31,0-.08-.02-.19-.03-.35-.03-.14-.06-.27-.11-.39,0-.04-.02-.08-.05-.12-.02-.04-.06-.08-.06-.11.66,0,1.33,0,1.99-.03.35,0,.69.05,1.06.17.37.11.71.27,1,.45.29.2.54.44.73.73s.29.58.29.89c0,.45-.08.82-.25,1.14-.14.32-.48.65-.99.97-.15.1-.31.19-.43.28.05.11.09.21.14.32.05.09.15.23.31.42.15.19.37.42.63.74.31.35.51.58.62.72.11.11.25.25.4.4.15.15.34.3.57.47.25.2.51.4.77.59-.39,0-.76,0-1.13,0-.15-.07-.31-.14-.45-.22-.29-.16-.54-.32-.74-.49-.2-.18-.57-.5-1.1-.98-.59-.56-1.13-1.2-1.64-1.95ZM49.8,45.49c.52-.12.97-.33,1.34-.66.37-.33.56-.68.56-1.1,0-.04,0-.12-.02-.21-.08-.38-.22-.67-.43-.88-.22-.22-.42-.37-.62-.45-.2-.09-.49-.19-.9-.3-.08,0-.15-.04-.23-.06,0,1.25.02,2.49.02,3.73.09-.02.19-.04.28-.06ZM45.89,44.61c.02.29-.09.54-.29.73-.2.19-.46.28-.77.29-.28-.02-.49-.12-.68-.3-.19-.2-.28-.43-.28-.7s.09-.47.29-.66c.2-.19.43-.29.71-.3.17,0,.34.04.51.11.15.09.28.19.37.35.09.13.14.29.14.48ZM45.95,48.6c0,.27-.09.5-.29.71-.2.19-.45.28-.76.28-.25,0-.48-.11-.66-.3-.2-.19-.28-.42-.28-.68,0-.17.05-.33.14-.48.09-.15.22-.26.37-.34.14-.09.31-.13.49-.15.26,0,.51.1.68.28.2.18.29.4.31.67ZM34.72,45.34c.05.5.15.95.35,1.35.2.41.46.76.77,1.05.31.29.66.51,1.05.66.4.16.8.23,1.2.23.12,0,.22,0,.29,0,.4-.04.79-.23,1.13-.53.32-.29.59-.67.79-1.14.19-.45.28-.92.28-1.4,0-.12,0-.23-.02-.29-.08-.66-.28-1.22-.63-1.72s-.79-.87-1.28-1.12c-.52-.27-1.03-.39-1.51-.38-.48.02-.91.18-1.28.48-.37.29-.66.66-.85,1.12-.2.45-.31.93-.31,1.42,0,.12,0,.21.02.27ZM41.8,45.23c.02.66-.11,1.25-.32,1.79-.22.53-.52.98-.88,1.36-.39.39-.83.68-1.33.89-.51.2-1.02.3-1.56.3-.03,0-.08,0-.11,0-.03,0-.08,0-.12,0-.8-.04-1.5-.25-2.11-.61-.59-.37-1.05-.86-1.37-1.49-.34-.61-.49-1.31-.52-2.07,0-.58.11-1.11.31-1.63.2-.51.49-.96.85-1.35.39-.39.82-.69,1.33-.91.48-.22,1-.35,1.57-.36.59,0,1.14.11,1.65.29.51.2.96.48,1.34.84.39.37.69.8.91,1.3.22.5.34,1.04.37,1.64ZM24.18,39.1c.88,0,1.76.02,2.65.02.59-.02,1.17-.04,1.77-.06.6.03,1.1.11,1.47.24.39.16.65.3.76.41.28.23.49.52.65.87.12.29.19.57.22.81-.02.68-.12,1.23-.32,1.63-.57,1.15-1.51,1.77-2.81,1.88-.52.05-.77,0-.77-.12,0-.04.02-.1.05-.15.05,0,.09-.02.15-.04.59.04,1.13-.24,1.6-.85.26-.41.42-.83.43-1.31.03-.81-.17-1.46-.56-1.94-.23-.27-.49-.47-.79-.62-.23-.06-.45-.12-.66-.18-.42-.02-.68,0-.76.04-.05.05-.08.11-.11.16.02,2.53.05,5.06.06,7.59.03.97.09,1.5.19,1.58.08.07.15.13.23.19.32.05.68.08,1.06.09.06.04.09.07.09.12-.02.07-.06.11-.14.12-1.62,0-3.04,0-4.26.04-.05-.02-.08-.04-.11-.08-.02-.08,0-.13.05-.14.23-.03.46-.06.69-.08.17-.02.29-.2.37-.56.06-.86.09-1.43.06-1.69-.02-2.25-.03-4.5-.06-6.76-.02-.39-.08-.64-.22-.74-.22-.14-.37-.2-.48-.19-.2,0-.4,0-.6,0-.08-.03-.12-.08-.11-.13.05-.1.11-.14.19-.13Z"/>
        <path class="cls-1" d="M117.58,50.23c.08-.46.15-.94.25-1.42,1.53-.61,3.05-1.23,4.6-1.84,1.6-.6,3.21-.74,4.8-1.38,1.59-.63,2.78-.83,4.52-1.24,3.24-.78,2.75-1.49,3.64-2.08,1.25-.83,2.7-.46,4.26-.82-.15,2.28-1.97,3.68-4.61,3.48-3.56-.26-10.85,2.54-17.45,5.3M122.47,45.84c.88-.48,3.33-3.5,4.15-5.18.51-1.03.77-1.08.6-2.51-1.51.74-2.67,1.84-3.26,3.18-.51,1.51-1.02,3.01-1.5,4.51M129.21,44.24c1.31-1.11,1.39-1.08,2.45-2.51.8-1.09,1.2-2.19,1.26-3.54-2.79,1.34-2.44,1.2-3.33,3.99-.42,1.34-.56.63-.39,2.05M129.77,46.87c1.11,1.27,1.94,2.35,5.35,1.83-.94-1.83-3.22-2.35-5.35-1.83M123.42,48.72c.85,1.58,2.7,2.12,4.95,1.58-1.28-1.19-2.67-1.93-4.95-1.58"/>
        <path class="cls-1" d="M22.05,50.27c-6.6-2.76-13.89-5.59-17.46-5.32-2.62.2-4.44-1.2-4.58-3.49,1.56.37,2.99,0,4.24.83.89.59.4,1.3,3.64,2.09,1.74.4,2.93.61,4.52,1.24,1.59.64,3.19.78,4.78,1.38,1.54.62,3.07,1.23,4.61,1.85.09.48.17.95.25,1.42M17.16,45.87c-.49-1.5-1-2.99-1.5-4.51-.59-1.34-1.74-2.43-3.26-3.18-.17,1.43.09,1.48.6,2.5.82,1.69,3.27,4.72,4.15,5.19M10.41,44.26c.17-1.43.03-.72-.39-2.06-.89-2.78-.54-2.65-3.29-3.99.01,1.35.42,2.46,1.23,3.54,1.05,1.43,1.13,1.41,2.44,2.51M9.86,46.89c-2.13-.51-4.41,0-5.35,1.82,3.41.53,4.24-.56,5.35-1.82M16.21,48.74c-2.3-.36-3.69.39-4.97,1.58,2.27.54,4.1.02,4.97-1.58"/>
      </g>
    </g>
  </g>
</svg>