
<svg xmlns="http://www.w3.org/2000/svg" version="1.1" xmlns:xlink="http://www.w3.org/1999/xlink" preserveAspectRatio="none" x="0px" y="0px" width="1080px" height="1080px" viewBox="0 0 1080 1080">
<defs>
<g id="Layer0_0_FILL">
<path fill="#FDCA00" stroke="none" d="
M 274.2 177.5
Q 274 177.4 273.7 177.8 273.7 178.05 274 178.2
L 275.7 178.3
Q 276.25 178.3 277 178.8 277.6 179.25 277.6 180.8
L 277.6 198.9
Q 277.7 199.75 277.4 203.4 277.1 204.9 276.4 204.9
L 274.5 205.1
Q 274.4 205.1 274.4 205.5
L 274.7 205.7
Q 279.8 205.55 286.7 205.7 287.1 205.7 287.1 205.4 287.1 205.2 286.85 205.1
L 283.85 204.8 283.25 204.3
Q 282.9 203.75 282.75 200
L 282.75 179.6 283.05 179.2
Q 283.25 179.1 285.15 179.1 287.9 179.95 288 180 289.5 180.55 290.35 181.6 291.5 182.95 291.7 185.15 291.85 187.2 291.15 188.7 289.95 191.1 287.15 190.3 286 189.95 285.65 188.95 285.35 188 285.75 187.1 286.15 186.2 287.25 186.1 288.4 185.95 288.75 187 288.75 187.1 288.9 187.25 289.1 187.35 289.25 187.3 289.6 187.2 289.25 186.5 288.85 185.75 288.15 185.4 286 184.55 284.65 186.7 283.8 188.15 284.4 190 285 191.95 286.85 192.5 288.95 193.15 290.8 192.7 292.55 192.25 293.7 190.8 294.95 189.55 295.55 187.7 296.15 185.85 295.9 183.9 295.65 180.05 291.4 178.2 290.15 177.7 286.7 177.5
L 274.2 177.5
M 327.2 201.8
Q 332 197.3 331.7 190.1 331.1 181.05 322.4 178.2 319.35 177.4 316.4 177.4 319.05 178.1 319.9 180.4 322.15 181.55 323.6 183.4 326.6 187.15 326.3 194.1 325.7 201.3 320.9 203.4 318.95 204.15 316.3 204 313.85 203.6 311.7 202.6 309.2 201 307.6 198.2 306.35 196.1 305.9 193.2 305.7 191.7 305.7 189.6 306 182.75 310.5 180.2 312.4 179.5 314 180.2 315.75 181 315.9 183.2 315.9 184.55 314.5 185.5 313.45 186.2 312.5 185.8 311.6 185.45 311.2 184.5 310.8 183.6 311.35 182.7 311.95 181.7 313 182.2 313.4 182.35 313.5 182 313.6 181.7 312.85 181.5 312.05 181.3 311.3 181.65 310.25 182.1 309.8 183.25 309.3 184.4 309.7 185.45 310.2 187 312 187.75 313.85 188.5 315.6 187.65 317.45 186.75 318 184.55 318.6 182.45 317.7 180.5 316.75 178.75 314.5 178.25 312.4 177.8 309.9 178.5 306.9 179.3 304.7 181.5 300.1 186.1 300.4 192.5 301.45 201.9 309.9 205 312.9 206.05 316.7 205.9 319.2 205.8 322 204.9 324.4 204.1 327.2 201.8 Z"/>
</g>

<g id="Layer0_1_FILL">
<path fill="#FDCA00" stroke="none" d="
M 274.2 177.5
Q 274 177.4 273.7 177.8 273.7 178.05 274 178.2
L 275.7 178.3
Q 276.25 178.3 277 178.8 277.6 179.25 277.6 180.8
L 277.6 198.9
Q 277.7 199.75 277.4 203.4 277.1 204.9 276.4 204.9
L 274.5 205.1
Q 274.4 205.1 274.4 205.5
L 274.7 205.7
Q 279.8 205.55 286.7 205.7 287.1 205.7 287.1 205.4 287.1 205.2 286.85 205.1
L 283.85 204.8 283.25 204.3
Q 282.9 203.75 282.75 200
L 282.75 179.6 283.05 179.2
Q 283.25 179.1 285.15 179.1 287.9 179.95 288 180 289.5 180.55 290.35 181.6 291.5 182.95 291.7 185.15 291.85 187.2 291.15 188.7 289.95 191.1 287.15 190.3 286 189.95 285.65 188.95 285.35 188 285.75 187.1 286.15 186.2 287.25 186.1 288.4 185.95 288.75 187 288.75 187.1 288.9 187.25 289.1 187.35 289.25 187.3 289.6 187.2 289.25 186.5 288.85 185.75 288.15 185.4 286 184.55 284.65 186.7 283.8 188.15 284.4 190 285 191.95 286.85 192.5 288.95 193.15 290.8 192.7 292.55 192.25 293.7 190.8 294.95 189.55 295.55 187.7 296.15 185.85 295.9 183.9 295.65 180.05 291.4 178.2 290.15 177.7 286.7 177.5
L 274.2 177.5 Z"/>
</g>

<g id="Layer0_2_FILL">
<path fill="#FDCA00" stroke="none" d="
M 257.25 181.6
Q 257.25 179.15 258.15 178.7 259.05 178.35 260.45 178.35 260.55 178.2 260.55 177.85
L 260.05 177.65 249.5 177.65 248.85 177.9
Q 248.7 178.2 249.05 178.4
L 250.95 178.6 251.45 178.9
Q 251.9 179.35 252.05 180.2
L 252.15 199.35
Q 252.25 200.1 251.95 203.85 251.8 204.75 251.15 205 250.35 205.2 249.15 205.2
L 248.95 205.4 248.95 205.7 249.25 205.9 260.85 205.9 261.6 205.7
Q 261.75 205.4 261.5 205.2
L 258.35 204.9 257.85 204.6
Q 257.25 204.25 257.25 201.5
L 257.25 181.6 Z"/>
</g>

<g id="Layer0_3_FILL">
<path fill="#FDCA00" stroke="none" d="
M 219.3 179.55
Q 217.15 181.3 217.15 183.7 217.15 185.9 219.1 187.45 221 188.9 223.15 188.6 225.6 188.25 226.5 186 226.9 184.95 226.4 183.8 225.9 182.65 224.85 182.2 224.1 181.85 223.3 182.05 222.55 182.25 222.65 182.6 222.8 182.9 223.15 182.8 224.2 182.3 224.85 183.3 225.4 184.2 225 185.1 224.05 187.15 221.75 186.35 219.5 185.6 219.6 183.8 219.65 182.25 221.05 181 222.35 179.9 223.8 179.8
L 229.4 179.8 229.4 200.4
Q 229.4 204.2 228.6 204.7 228.25 205.2 226.2 205.2 226 205.3 226 205.6 226.15 205.9 226.8 205.9 227.8 205.8 238.3 205.8 238.7 205.65 238.7 205.3 238.5 205.1 238 205.1
L 236.3 205 235.4 204.8
Q 234.95 204.7 234.6 203.7 234.45 202.8 234.3 199.3
L 234.3 179.8
Q 238.9 179.8 240.7 180 241.95 180.2 242.45 180.65 242.85 180.95 243.1 181.7
L 243.2 182.9 243.3 183.1 243.7 183.2
Q 243.85 183.2 244 182.9
L 244.1 177.7
Q 244.1 177.5 243.6 177.5
L 241.4 177.8 224 177.8
Q 221.35 177.85 219.3 179.55 Z"/>
</g>

<g id="Layer0_4_FILL">
<path fill="#E60004" stroke="none" d="
M 271.25 197
L 267.75 193.85 264.25 197 267.75 200.2 271.25 197
M 264.25 186.4
L 267.75 189.6 271.25 186.4 267.75 183.2 264.25 186.4 Z"/>
</g>

<g id="Layer0_5_FILL">
<path fill="#68676C" stroke="none" d="
M 261 165.35
Q 260.1 166.95 258.6 167.8 256.85 168.55 256.05 168.9 253.3 170.25 253.6 175 254.35 174 256.1 173.25 257.05 172.8 259 171.95 262.2 170.15 261 165.35 Z"/>
</g>
</defs>

<g transform="matrix( 8.099945068359375, 0, 0, 8.099945068359375, -1674.4,-969) ">
<use xlink:href="#Layer0_0_FILL"/>
</g>

<g transform="matrix( 8.099945068359375, 0, 0, 8.099945068359375, -1674.4,-969) ">
<use xlink:href="#Layer0_1_FILL"/>
</g>

<g transform="matrix( 8.099945068359375, 0, 0, 8.099945068359375, -1674.4,-969) ">
<use xlink:href="#Layer0_2_FILL"/>
</g>

<g transform="matrix( 8.099945068359375, 0, 0, 8.099945068359375, -1674.4,-969) ">
<use xlink:href="#Layer0_3_FILL"/>
</g>

<g transform="matrix( 8.099945068359375, 0, 0, 8.099945068359375, -1674.4,-969) ">
<use xlink:href="#Layer0_4_FILL"/>
</g>

<g transform="matrix( 8.09796142578125, 0, 0, 8.09796142578125, -1674.4,-969) ">
<use xlink:href="#Layer0_5_FILL"/>
</g>
</svg>
